<svg width="20" height="20" viewBox="0 0 20 20" fill="none" xmlns="http://www.w3.org/2000/svg">
<path d="M12.1073 7.89453L7.89063 12.1112C7.34896 11.5695 7.01562 10.8279 7.01562 10.0029C7.01562 8.35286 8.34896 7.01953 9.99896 7.01953C10.824 7.01953 11.5656 7.35286 12.1073 7.89453Z" stroke="#676767" stroke-width="1.5" stroke-linecap="round" stroke-linejoin="round"/>
<path d="M14.8499 4.81328C13.3915 3.71328 11.7249 3.11328 9.99987 3.11328C7.0582 3.11328 4.31654 4.84661 2.4082 7.84661C1.6582 9.02161 1.6582 10.9966 2.4082 12.1716C3.06654 13.2049 3.8332 14.0966 4.66654 14.8133" stroke="#676767" stroke-width="1.5" stroke-linecap="round" stroke-linejoin="round"/>
<path d="M7.01562 16.276C7.96563 16.676 8.97396 16.8927 9.99896 16.8927C12.9406 16.8927 15.6823 15.1594 17.5906 12.1594C18.3406 10.9844 18.3406 9.00938 17.5906 7.83437C17.3156 7.40104 17.0156 6.99271 16.7073 6.60938" stroke="#676767" stroke-width="1.5" stroke-linecap="round" stroke-linejoin="round"/>
<path d="M12.9242 10.5859C12.7076 11.7609 11.7492 12.7193 10.5742 12.9359" stroke="#676767" stroke-width="1.5" stroke-linecap="round" stroke-linejoin="round"/>
<path d="M7.89102 12.1094L1.66602 18.3344" stroke="#676767" stroke-width="1.5" stroke-linecap="round" stroke-linejoin="round"/>
<path d="M18.3344 1.66797L12.1094 7.89297" stroke="#676767" stroke-width="1.5" stroke-linecap="round" stroke-linejoin="round"/>
</svg>
